#!OML:ASF F:\VICON\USERDATA\INSTALL\rory3\rory3.ASF
:FULLY-SPECIFIED
:DEGREES
2521
root -12.6929 17.7902 14.8799 -180.206 228.967 -538.178
lowerback 10.6377 3.464 -1.81269
upperback 1.64567 4.30183 -1.12912
thorax -4.27974 2.13134 -0.766031
lowerneck -7.85611 0.213129 -10.1473
upperneck 44.9408 -0.0329757 4.23945
head 18.17 -1.57726 3.74692
rclavicle 1.1122e-013 -6.55989e-015
rhumerus -29.9213 -9.80653 -82.2381
rradius 39.7447
rwrist 2.53648
rhand -15.2635 9.01173
rfingers 7.12502
rthumb 10.9106 -20.6848
lclavicle 1.1122e-013 -6.55989e-015
lhumerus -37.6758 8.67276 80.4235
lradius 32.9089
lwrist -5.91252
lhand -18.2721 27.6282
lfingers 7.12502
lthumb 8.00771 57.4565
rfemur -21.0197 3.29573 14.0042
rtibia 34.0837
rfoot -20.7423 -1.14801
rtoes -4.56161
lfemur -11.1974 -10.3802 -21.5157
ltibia 22.5428
lfoot -8.0407 -23.3055
ltoes 13.6192
2522
root -12.6603 17.7936 14.8976 -180.248 230.102 -538.14
lowerback 10.7026 3.50376 -1.8868
upperback 1.56332 4.34486 -1.09177
thorax -4.41039 2.15408 -0.700272
lowerneck -7.9809 0.32668 -10.5523
upperneck 45.201 0.11343 4.50064
head 18.3515 -1.58085 3.98079
rclavicle 6.80837e-015 -1.17283e-014
rhumerus -30.0629 -9.91941 -82.2786
rradius 39.46
rwrist 3.51488
rhand -14.9788 8.98166
rfingers 7.12502
rthumb 11.1852 -20.7002
lclavicle 6.80837e-015 -1.17283e-014
lhumerus -37.7725 8.68867 80.3804
lradius 32.8895
lwrist -5.31061
lhand -18.9598 27.5449
lfingers 7.12502
lthumb 7.34397 57.3975
rfemur -21.2986 2.86706 14.0996
rtibia 34.3764
rfoot -20.535 -1.84581
rtoes -3.66265
lfemur -11.0076 -10.0297 -21.6331
ltibia 22.3445
lfoot -8.5244 -22.5593
ltoes 11.7211
2523
root -12.6262 17.7952 14.916 -180.366 231.138 -537.869
lowerback 10.6168 3.53668 -2.03373
upperback 1.51976 4.37021 -1.15557
thorax -4.41455 2.16858 -0.684747
lowerneck -8.15083 0.393435 -10.7833
upperneck 45.3554 0.185183 4.69372
head 18.4865 -1.58655 4.13608
rclavicle -5.01931e-015 3.37934e-015
rhumerus -30.1717 -9.68943 -82.4622
rradius 39.2881
rwrist 4.10649
rhand -15.1572 8.63312
rfingers 7.12502
rthumb 11.0131 -21.058
lclavicle -5.01931e-015 3.37934e-015
lhumerus -37.7006 8.70287 80.2551
lradius 32.9152
lwrist -4.9109
lhand -19.192 27.5799
lfingers 7.12502
lthumb 7.11984 57.4402
rfemur -21.6934 2.14567 14.0411
rtibia 34.7266
rfoot -20.3947 -2.37582
rtoes -3.57792
lfemur -10.9537 -9.72496 -21.9063
ltibia 22.1617
lfoot -8.71374 -21.8318
ltoes 10.8611
2524
root -12.5931 17.7964 14.935 -180.591 232.265 -537.467
lowerback 10.4538 3.58526 -2.25829
upperback 1.51889 4.40925 -1.24529
thorax -4.33523 2.19048 -0.64788
lowerneck -8.34636 0.456504 -11.0315
upperneck 45.4841 0.221882 4.97467
head 18.6151 -1.59754 4.33257
rclavicle 1.16761e-013 -1.90833e-014
rhumerus -30.1947 -9.49304 -82.6785
rradius 39.0457
rwrist 4.59877
rhand -15.4076 8.51922
rfingers 7.12502
rthumb 10.7716 -21.1846
lclavicle 1.16761e-013 -1.90833e-014
lhumerus -37.6416 8.96678 80.0136
lradius 33.0406
lwrist -4.80944
lhand -19.3326 27.7094
lfingers 7.12502
lthumb 6.98412 57.5742
rfemur -22.0888 1.47024 13.9398
rtibia 35.1119
rfoot -20.3249 -2.91386
rtoes -3.06155
lfemur -10.8993 -9.39226 -22.263
ltibia 21.9919
lfoot -8.80468 -20.9949
ltoes 10.24
2525
root -12.5615 17.7952 14.9521 -180.721 233.432 -537.315
lowerback 10.3683 3.65204 -2.33002
upperback 1.54301 4.49019 -1.28507
thorax -4.26572 2.23071 -0.653976
lowerneck -8.50369 0.521401 -11.3883
upperneck 45.635 0.18482 5.4823
head 18.7547 -1.63142 4.65169
rclavicle -1.14301e-015 5.76476e-015
rhumerus -30.1807 -9.66125 -82.8019
rradius 38.7257
rwrist 5.2631
rhand -15.1397 8.74107
rfingers 7.12502
rthumb 11.0301 -20.9491
lclavicle -1.14301e-015 5.76476e-015
lhumerus -37.6179 9.09654 79.8217
lradius 33.1965
lwrist -4.60622
lhand -19.8403 27.7329
lfingers 7.12502
lthumb 6.49396 57.6134
rfemur -22.3689 0.967201 14.0507
rtibia 35.5128
rfoot -20.222 -3.45875
rtoes -2.34304
lfemur -10.7522 -9.0631 -22.4463
ltibia 21.8387
lfoot -9.095 -20.069
ltoes 8.45688
2526
root -12.5313 17.7959 14.9692 -180.802 234.477 -537.324
lowerback 10.3854 3.69574 -2.24614
upperback 1.56443 4.55349 -1.33895
thorax -4.24248 2.25972 -0.765358
lowerneck -8.48429 0.614116 -11.4298
upperneck 45.6331 0.21188 5.70087
head 18.7367 -1.60978 4.76795
rclavicle -1.05132e-013 7.55382e-015
rhumerus -30.2215 -9.7857 -83.0437
rradius 38.4909
rwrist 5.42136
rhand -15.0129 9.09154
rfingers 7.12502
rthumb 11.1523 -20.5921
lclavicle -1.05132e-013 7.55382e-015
lhumerus -37.5662 9.2009 79.5524
lradius 33.2792
lwrist -4.49083
lhand -19.6951 27.7723
lfingers 7.12502
lthumb 6.63413 57.6484
rfemur -22.5241 0.450249 14.2889
rtibia 35.9027
rfoot -20.0784 -4.0273
rtoes -2.27974
lfemur -10.5487 -8.76007 -22.5422
ltibia 21.7317
lfoot -9.43382 -19.2572
ltoes 6.61104
2527
root -12.5012 17.7978 14.9867 -180.971 235.383 -537.309
lowerback 10.5401 3.68351 -2.2047
upperback 1.54453 4.5339 -1.36119
thorax -4.34383 2.24869 -0.820205
lowerneck -8.36774 0.72712 -11.3304
upperneck 45.568 0.337736 5.64583
head 18.64 -1.55376 4.73133
rclavicle 1.04387e-013 -2.78299e-014
rhumerus -30.3474 -9.72265 -83.2742
rradius 38.2893
rwrist 5.45387
rhand -14.9238 9.18697
rfingers 7.12502
rthumb 11.2382 -20.492
lclavicle 1.04387e-013 -2.78299e-014
lhumerus -37.7121 9.61916 79.1544
lradius 33.5114
lwrist -4.90996
lhand -18.6828 27.8977
lfingers 7.12502
lthumb 7.61129 57.7408
rfemur -22.5201 -0.218285 14.5281
rtibia 36.2889
rfoot -19.9403 -4.53989
rtoes -1.57973
lfemur -10.2941 -8.44111 -22.6692
ltibia 21.6758
lfoot -9.69693 -18.6249
ltoes 5.42916
